<svg version="1.1" viewBox="0.0 0.0 328.5485564304462 334.34120734908134" fill="none" stroke="none" stroke-linecap="square" stroke-miterlimit="10" xmlns:xlink="http://www.w3.org/1999/xlink" xmlns="http://www.w3.org/2000/svg"><clipPath id="p.0"><path d="m0 0l328.54855 0l0 334.34122l-328.54855 0l0 -334.34122z" clip-rule="nonzero"/></clipPath><g clip-path="url(#p.0)"><path fill="#000000" fill-opacity="0.0" d="m0 0l328.54855 0l0 334.34122l-328.54855 0z" fill-rule="evenodd"/><path fill="#000000" d="m3.718028 57.078117l0 0c0 -29.591076 23.988308 -53.579384 53.579384 -53.579384l214.31111 0l0 0c14.210144 0 27.838257 5.644955 37.886353 15.693039c10.048096 10.048082 15.693024 23.676208 15.693024 37.886345l0 220.48322c0 29.591064 -23.988281 53.579376 -53.579376 53.579376l-214.31111 0l0 0c-29.591076 0 -53.579384 -23.988312 -53.579384 -53.579376z" fill-rule="evenodd"/><path fill="#4a86e8" d="m66.75292 99.15472l0 0c0 -11.499123 9.90947 -20.821007 22.133415 -20.821007l0 0c5.8701477 0 11.499863 2.193634 15.650681 6.0983353c4.1508255 3.9046936 6.482727 9.2006 6.482727 14.7226715l0 0c0 11.499123 -9.909462 20.821007 -22.133408 20.821007l0 0c-12.223946 0 -22.133415 -9.321884 -22.133415 -20.821007z" fill-rule="evenodd"/><path fill="#e06666" d="m209.78423 99.15472l22.133408 -20.821007l22.133408 20.821007l-22.133408 20.821007z" fill-rule="evenodd"/><path fill="#f1c232" d="m73.74425 249.09377l22.133408 -37.020218l22.133415 37.020218z" fill-rule="evenodd"/><path fill="#76a5af" d="m209.78427 225.39386l22.133362 -16.794312l22.133362 16.794312l-8.454193 27.173782l-27.358337 0z" fill-rule="evenodd"/><defs><radialGradient id="p.1" gradientUnits="userSpaceOnUse" gradientTransform="matrix(10.920720314090481 -12.143842430838523 12.143842430838523 10.920720314090481 0.0 0.0)" spreadMethod="pad" cx="-1.0372358579296783" cy="14.167911117283065" fx="-1.0372358579296783" fy="14.167911117283065" r="12.143842697143555"><stop offset="0.0" stop-color="#dbd4eb"/><stop offset="1.0" stop-color="#9180bb"/></radialGradient></defs><path fill="url(#p.1)" d="m37.516453 304.3283l0 0c-30.315214 -26.894684 0.27202606 -110.0379 68.31851 -185.70561l0 0c68.046486 -75.6677 147.7844 -115.20605 178.09961 -88.31137l0 0c30.315216 26.894682 -0.27200317 110.03792 -68.3185 185.70563l0 0c-68.04649 75.66771 -147.78441 115.20604 -178.09962 88.311356zm10.337193 -11.494934l0 0c23.928406 21.228485 93.860664 -17.756714 156.19809 -87.07593c62.337402 -69.319214 93.47406 -142.72266 69.545654 -163.95116l0 0c-23.92839 -21.22851 -93.86066 17.756706 -156.19807 87.07591l0 0c-62.337414 69.319214 -93.47407 142.72266 -69.54566 163.95117z" fill-rule="evenodd"/><path fill="#ffffff" d="m66.75292 168.57338l86.51586 -6.87352l7.133194 -83.36615l7.133209 83.36615l86.515854 6.87352l-86.515854 6.8735046l-7.133209 83.366165l-7.133194 -83.366165z" fill-rule="evenodd"/></g></svg>