<?xml version="1.0" encoding="UTF-8" standalone="no"?>
<svg
   xmlns:dc="http://purl.org/dc/elements/1.1/"
   xmlns:cc="http://creativecommons.org/ns#"
   xmlns:rdf="http://www.w3.org/1999/02/22-rdf-syntax-ns#"
   xmlns:svg="http://www.w3.org/2000/svg"
   xmlns="http://www.w3.org/2000/svg"
   xmlns:sodipodi="http://sodipodi.sourceforge.net/DTD/sodipodi-0.dtd"
   xmlns:inkscape="http://www.inkscape.org/namespaces/inkscape"
   width="14px"
   height="16px"
   viewBox="0 0 14 16"
   version="1.1"
   id="svg11"
   sodipodi:docname="logo-mini.svg"
   inkscape:version="1.0.1 (3bc2e813f5, 2020-09-07)">
  <metadata
     id="metadata17">
    <rdf:RDF>
      <cc:Work
         rdf:about="">
        <dc:format>image/svg+xml</dc:format>
        <dc:type
           rdf:resource="http://purl.org/dc/dcmitype/StillImage" />
      </cc:Work>
    </rdf:RDF>
  </metadata>
  <defs
     id="defs15">
    <radialGradient
       id="p.1"
       gradientUnits="userSpaceOnUse"
       gradientTransform="matrix(0.45401928,-0.49233983,0.50486948,0.4427516,0.17459748,1.2423342)"
       spreadMethod="pad"
       cx="-1.0372359"
       cy="14.167912"
       fx="-1.0372359"
       fy="14.167912"
       r="12.143843">
      <stop
         offset="0.0"
         stop-color="#dbd4eb"
         id="stop17" />
      <stop
         offset="1.0"
         stop-color="#9180bb"
         id="stop19" />
    </radialGradient>
  </defs>
  <sodipodi:namedview
     pagecolor="#ffffff"
     bordercolor="#666666"
     borderopacity="1"
     objecttolerance="10"
     gridtolerance="10"
     guidetolerance="10"
     inkscape:pageopacity="0"
     inkscape:pageshadow="2"
     inkscape:window-width="1920"
     inkscape:window-height="1000"
     id="namedview13"
     showgrid="false"
     inkscape:zoom="25.4375"
     inkscape:cx="15.063976"
     inkscape:cy="12.004242"
     inkscape:window-x="-11"
     inkscape:window-y="-11"
     inkscape:window-maximized="1"
     inkscape:current-layer="svg11" />
  <!-- Generator: Sketch 53 (72520) - https://sketchapp.com -->
  <title
     id="title2">Kapella_mini_logo</title>
  <desc
     id="desc4">Created with Sketch.</desc>
  <path
     fill="#000000"
     fill-opacity="0"
     d="M 0.17459793,1.2423342 H 13.833714 V 14.79731 H 0.17459793 Z"
     fill-rule="evenodd"
     id="path5"
     style="stroke-width:0.0410551" />
  <path
     fill="#000000"
     d="m 0.32917176,3.5564142 v 0 c 0,-1.1996932 0.99729244,-2.1722369 2.22751514,-2.1722369 h 8.9097941 v 0 c 0.590779,0 1.157353,0.2288622 1.575092,0.6362335 0.417745,0.407376 0.652425,0.9598927 0.652425,1.5360034 V 12.49532 c 0,1.199691 -0.99729,2.172236 -2.227517,2.172236 H 2.5566869 v 0 c -1.2302227,0 -2.22751514,-0.972545 -2.22751514,-2.172236 z"
     fill-rule="evenodd"
     id="path7"
     style="stroke-width:0.0410551" />
  <path
     fill="#4a86e8"
     d="m 2.9497916,5.262297 v 0 c 0,-0.4662025 0.411978,-0.8441321 0.9201778,-0.8441321 v 0 c 0.2440435,0 0.4780962,0.088935 0.6506624,0.2472425 0.1725662,0.1583025 0.2695126,0.373014 0.2695126,0.5968896 v 0 c 0,0.4662024 -0.4119752,0.844132 -0.920175,0.844132 v 0 c -0.5081998,0 -0.9201778,-0.3779296 -0.9201778,-0.844132 z"
     fill-rule="evenodd"
     id="path9"
     style="stroke-width:0.0410551" />
  <path
     fill="#e06666"
     d="M 8.8961937,5.262297 9.8163687,4.4181649 10.736548,5.262297 9.8163687,6.106429 Z"
     fill-rule="evenodd"
     id="path11"
     style="stroke-width:0.0410551" />
  <path
     fill="#f1c232"
     d="M 3.2404508,11.341177 4.1606258,9.8402927 5.0808056,11.341177 Z"
     fill-rule="evenodd"
     id="path13"
     style="stroke-width:0.0410551" />
  <path
     fill="#76a5af"
     d="M 8.8961937,10.38033 9.8163687,9.6994479 10.736543,10.38033 10.385066,11.482016 H 9.2476712 Z"
     fill-rule="evenodd"
     id="path15"
     style="stroke-width:0.0410551" />
  <path
     fill="url(#p.1)"
     d="m 1.7343109,13.580515 v 0 C 0.47398305,12.490143 1.7456181,9.1193205 4.5745924,6.0515767 v 0 C 7.4035678,2.9838281 10.718601,1.3808513 11.978926,2.471223 v 0 c 1.26033,1.0903764 -0.01129,4.461199 -2.840282,7.528943 v 0 c -2.8289703,3.067749 -6.1440048,4.670725 -7.4043331,3.580349 z m 0.4297602,-0.466028 v 0 C 3.1588731,13.975136 6.0662442,12.394584 8.6578674,9.584222 11.249491,6.7738593 12.543969,3.7979083 11.549168,2.9372599 v 0 C 10.554366,2.0766021 7.6469927,3.6571581 5.0553693,6.4675206 v 0 C 2.4637484,9.2778833 1.1692689,12.25383 2.1640711,13.114482 Z"
     fill-rule="evenodd"
     id="path24"
     style="fill:url(#p.1);stroke-width:0.0410551" />
  <path
     fill="#ffffff"
     d="M 2.9497916,8.0766951 6.5466131,7.7980239 6.8431693,4.4181649 7.1397254,7.7980239 10.736548,8.0766951 7.1397254,8.3553615 6.8431693,11.73522 6.5466131,8.3553615 Z"
     fill-rule="evenodd"
     id="path26"
     style="stroke-width:0.0410551" />
</svg>
