<?xml version="1.0" encoding="UTF-8" standalone="no"?>
<svg
   xmlns:dc="http://purl.org/dc/elements/1.1/"
   xmlns:cc="http://creativecommons.org/ns#"
   xmlns:rdf="http://www.w3.org/1999/02/22-rdf-syntax-ns#"
   xmlns:svg="http://www.w3.org/2000/svg"
   xmlns="http://www.w3.org/2000/svg"
   xmlns:sodipodi="http://sodipodi.sourceforge.net/DTD/sodipodi-0.dtd"
   xmlns:inkscape="http://www.inkscape.org/namespaces/inkscape"
   width="77"
   height="22"
   viewBox="0 0 77 22"
   version="1.1"
   id="svg4"
   sodipodi:docname="logo.svg"
   inkscape:version="1.0.1 (3bc2e813f5, 2020-09-07)">
  <metadata
     id="metadata10">
    <rdf:RDF>
      <cc:Work
         rdf:about="">
        <dc:format>image/svg+xml</dc:format>
        <dc:type
           rdf:resource="http://purl.org/dc/dcmitype/StillImage" />
      </cc:Work>
    </rdf:RDF>
  </metadata>
  <defs
     id="defs8">
    <radialGradient
       id="p.1"
       gradientUnits="userSpaceOnUse"
       gradientTransform="matrix(1.7830327,-1.7989579,1.9827326,1.6177677,207.22063,172.74723)"
       spreadMethod="pad"
       cx="-1.0372359"
       cy="14.167912"
       fx="-1.0372359"
       fy="14.167912"
       r="12.143843">
      <stop
         offset="0.0"
         stop-color="#dbd4eb"
         id="stop17" />
      <stop
         offset="1.0"
         stop-color="#9180bb"
         id="stop19" />
    </radialGradient>
    <radialGradient
       id="p.1-3"
       gradientUnits="userSpaceOnUse"
       gradientTransform="matrix(0.69102103,-0.70592679,0.76841546,0.63482621,0.36279814,1.5050474)"
       spreadMethod="pad"
       cx="-1.0372359"
       cy="14.167912"
       fx="-1.0372359"
       fy="14.167912"
       r="12.143843">
      <stop
         offset="0.0"
         stop-color="#dbd4eb"
         id="stop17-5" />
      <stop
         offset="1.0"
         stop-color="#9180bb"
         id="stop19-2" />
    </radialGradient>
  </defs>
  <sodipodi:namedview
     pagecolor="#ffffff"
     bordercolor="#666666"
     borderopacity="1"
     objecttolerance="10"
     gridtolerance="10"
     guidetolerance="10"
     inkscape:pageopacity="0"
     inkscape:pageshadow="2"
     inkscape:window-width="2880"
     inkscape:window-height="1541"
     id="namedview6"
     showgrid="false"
     inkscape:zoom="2.2840909"
     inkscape:cx="71.545529"
     inkscape:cy="142.53477"
     inkscape:window-x="2869"
     inkscape:window-y="-11"
     inkscape:window-maximized="1"
     inkscape:current-layer="svg4" />
  <path
     fill="#000000"
     fill-opacity="0"
     d="M 0.36279564,1.5050474 H 21.152081 V 20.940448 H 0.36279564 Z"
     fill-rule="evenodd"
     id="path5-7"
     style="stroke-width:0.0606488" />
  <path
     fill="#000000"
     d="m 0.59805794,4.8230239 v 0 c 0,-1.7201451 1.51788896,-3.1145928 3.39029816,-3.1145928 H 17.549135 v 0 c 0.899164,0 1.761497,0.3281407 2.397303,0.9122441 0.635804,0.584099 0.992993,1.3763077 0.992993,2.2023487 V 17.639809 c 0,1.720141 -1.517884,3.114593 -3.390296,3.114593 H 3.9883561 v 0 c -1.8724092,0 -3.39029816,-1.394452 -3.39029816,-3.114593 z"
     fill-rule="evenodd"
     id="path7-8"
     style="stroke-width:0.0606488" />
  <path
     fill="#4a86e8"
     d="m 4.5866632,7.2689561 v 0 c 0,-0.6684527 0.6270336,-1.2103369 1.4005158,-1.2103369 v 0 c 0.3714415,0 0.7276672,0.1275189 0.9903167,0.3544982 0.2626471,0.2269835 0.4102015,0.5348377 0.4102015,0.8558387 v 0 c 0,0.6684485 -0.6270336,1.2103326 -1.4005182,1.2103326 v 0 c -0.7734822,0 -1.4005158,-0.5418841 -1.4005158,-1.2103326 z"
     fill-rule="evenodd"
     id="path9-4"
     style="stroke-width:0.0606488" />
  <path
     fill="#e06666"
     d="m 13.637133,7.2689561 1.400516,-1.2103369 1.400518,1.2103369 -1.400518,1.2103326 z"
     fill-rule="evenodd"
     id="path11-3"
     style="stroke-width:0.0606488" />
  <path
     fill="#f1c232"
     d="m 5.0290462,15.984978 1.4005182,-2.152005 1.4005158,2.152005 z"
     fill-rule="evenodd"
     id="path13-3"
     style="stroke-width:0.0606488" />
  <path
     fill="#76a5af"
     d="m 13.637136,14.607292 1.400513,-0.97626 1.400514,0.97626 -0.53495,1.579623 h -1.731128 z"
     fill-rule="evenodd"
     id="path15-4"
     style="stroke-width:0.0606488" />
  <path
     fill="url(#p.1)"
     d="m 2.7366921,19.195782 v 0 C 0.81846309,17.632385 2.7538935,12.799234 7.059623,8.4006367 v 0 c 4.30572,-4.398597 9.351228,-6.6969782 11.269457,-5.1335772 v 0 c 1.918229,1.5633969 -0.0172,6.3965482 -4.32293,10.7951455 v 0 C 9.7004301,18.460802 4.6549211,20.759183 2.7366921,19.195782 Z M 3.3907886,18.52758 v 0 c 1.5140997,1.234017 5.939141,-1.032208 9.8836144,-5.061764 3.944471,-4.0295567 5.914678,-8.2965283 4.400581,-9.5305498 v 0 C 16.160887,2.7012404 11.735843,4.9674695 7.7913719,8.9970258 v 0 C 3.8469008,13.026582 1.8766938,17.293554 3.3907911,18.52758 Z"
     fill-rule="evenodd"
     id="path24-7"
     style="fill:url(#p.1-3);stroke-width:0.0606488" />
  <path
     fill="#ffffff"
     d="m 4.5866632,11.304291 5.4743888,-0.39956 0.451362,-4.8461118 0.451362,4.8461118 5.474389,0.39956 -5.474389,0.399559 -0.451362,4.846112 -0.451362,-4.846112 z"
     fill-rule="evenodd"
     id="path26-3"
     style="stroke-width:0.0606488" />
  <text
     xml:space="preserve"
     style="font-style:normal;font-variant:normal;font-weight:normal;font-stretch:normal;font-size:12px;line-height:1.25;font-family:'Gill Sans MT Condensed';-inkscape-font-specification:'Gill Sans MT Condensed, ';fill:#000000;fill-opacity:1;stroke:none"
     x="21.452736"
     y="14.557214"
     id="text895"><tspan
       sodipodi:role="line"
       id="tspan893"
       x="21.452736"
       y="14.557214">Lastminute NFT</tspan></text>
</svg>
